#N canvas 317 139 907 524 10;
#X obj 233 136 inlet~;
#X obj 230 322 outlet~;
#X obj 252 273 68grains;
#X obj 394 273 68grains;
#X obj 323 273 68grains;
#X obj 464 274 68grains;
#X connect 0 0 2 0;
#X connect 0 0 3 0;
#X connect 0 0 4 0;
#X connect 0 0 5 0;
#X connect 2 0 1 0;
#X connect 3 0 1 0;
#X connect 4 0 1 0;
#X connect 5 0 1 0;
