#N canvas 39 396 1184 516 10;
#X obj 85 49 inlet~;
#X obj 104 221 outlet~;
#X floatatom 184 80 5 0 0 0 - - -;
#X floatatom 218 80 5 0 0 0 - - -;
#X text 178 99 durata;
#X text 223 99 densita;
#X floatatom 363 127 5 0 0 0 - - -;
#X floatatom 401 127 5 0 0 0 - - -;
#X floatatom 438 127 5 0 0 0 - - -;
#X floatatom 475 127 5 0 0 0 - - -;
#X floatatom 656 88 5 0 0 0 - - -;
#X floatatom 694 88 5 0 0 0 - - -;
#X floatatom 739 88 5 0 0 0 - - -;
#X floatatom 778 88 5 0 0 0 - - -;
#X obj 215 196 grain;
#X obj 296 -17 r dur1;
#X obj 741 -90 r f1;
#X obj 780 -90 r f2;
#X obj 816 -90 r f3;
#X obj 854 -90 r f4;
#X obj 740 -65 r q1;
#X obj 776 -65 r q2;
#X obj 814 -65 r q3;
#X obj 852 -65 r q4;
#X obj 247 -17 r dens1;
#X obj 104 196 grain;
#X obj 265 196 grain;
#X obj 165 196 grain;
#X obj 341 -16 expr abs($f1-1);
#X floatatom 440 -15 5 0 0 0 - - -;
#X obj 341 10 expr if($f1<0.5 \, 300+(1650-300)*exp(10*($f1-0.5)) \,
1650-(1650-900)*exp($f1/0.1-10)) \; 650+(480-650)*pow($f1 \, 3) \;
if($f1<0.5 \, 400+(3570-400)*exp(10*($f1-0.5)) \, 3570-(3570-210)*exp($f1/0.1-10))
\; if($f1<0.5 \, 110+(312-110)*exp(10*($f1-0.5)) \, 312-(312-124)*exp($f1/0.1-10))
\;;
#X obj 656 6 expr 50+(130-50)*$f1 \; (8+65)-abs(65*(pow(x-1 \, 3)))
\; (75+55)-abs(75*(pow(x-1 \, 3))) \; 7 \;;
#X obj 132 8 expr 100-$f1*(100-8) \; 100-$f1*(100-60);
#X floatatom 493 -24 5 0 0 0 - - -;
#X obj 106 -80 r distfromcenter;
#X connect 0 0 14 0;
#X connect 0 0 25 0;
#X connect 0 0 26 0;
#X connect 0 0 27 0;
#X connect 14 0 1 0;
#X connect 25 0 1 0;
#X connect 26 0 1 0;
#X connect 27 0 1 0;
#X connect 28 0 29 0;
#X connect 28 0 30 0;
#X connect 28 0 31 0;
#X connect 28 0 32 0;
#X connect 30 0 6 0;
#X connect 30 0 25 3;
#X connect 30 1 7 0;
#X connect 30 1 27 3;
#X connect 30 2 8 0;
#X connect 30 2 14 3;
#X connect 30 3 9 0;
#X connect 30 3 26 3;
#X connect 31 0 10 0;
#X connect 31 0 25 4;
#X connect 31 1 11 0;
#X connect 31 1 27 4;
#X connect 31 2 12 0;
#X connect 31 2 14 4;
#X connect 31 3 13 0;
#X connect 31 3 26 4;
#X connect 32 0 2 0;
#X connect 32 0 25 1;
#X connect 32 0 27 1;
#X connect 32 0 14 1;
#X connect 32 0 26 1;
#X connect 32 1 3 0;
#X connect 32 1 25 2;
#X connect 32 1 27 2;
#X connect 32 1 14 2;
#X connect 32 1 26 2;
#X connect 34 0 32 0;
#X connect 34 0 33 0;
#X connect 34 0 28 0;
