#N canvas 150 130 346 162 10;
#X obj 34 26 inlet~;
#X obj 34 82 outlet~;
#X obj 34 53 16grains;
#X obj 104 53 16grains;
#X obj 174 53 16grains;
#X obj 244 54 16grains;
#X connect 0 0 2 0;
#X connect 0 0 3 0;
#X connect 0 0 4 0;
#X connect 0 0 5 0;
#X connect 2 0 1 0;
#X connect 3 0 1 0;
#X connect 4 0 1 0;
#X connect 5 0 1 0;
