#N canvas 15 23 1258 755 10;
#X obj 122 494 inlet~;
#X obj 239 85 unpack;
#X obj 184 682 outlet~;
#X obj 239 127 max;
#X obj 272 146 max;
#X obj 254 106 expr 1-$f1;
#X obj 287 126 expr 1-$f1;
#X obj 212 171 expr sqrt(pow($f1 \, 2)+pow($f2 \, 2));
#X obj -41 141 r coord;
#X obj -41 197 expr sqrt(pow($f1-$f3 \, 2)+pow($f2-$f4 \, 2))/$f5;
#X text 424 174 maximum distance reacheble;
#X obj 95 166 unpack;
#X obj -41 171 unpack;
#X text 246 199 normalized distant position from source;
#X obj 184 636 *~;
#X obj 250 229 expr abs($f1-1);
#X obj 272 422 inlet;
#X floatatom -41 223 5 0 0 0 - - -;
#X floatatom 447 158 5 0 0 0 - - -;
#X floatatom 323 650 5 0 0 0 - - -;
#X floatatom 364 650 5 0 0 0 - - -;
#X floatatom 453 652 5 0 0 0 - - -;
#X floatatom 405 653 5 0 0 0 - - -;
#X floatatom 282 650 5 0 0 0 - - -;
#X obj 316 470 gate 6;
#X obj 265 528 expr $f1;
#X obj 400 606 expr pow($f1 \, 6);
#X obj 334 580 expr pow($f1 \, 2);
#X obj 246 529 bng 15 250 50 0 empty empty empty 17 7 0 10 -262144
-1 -1;
#X floatatom 301 444 5 0 0 0 - - -;
#X obj 272 443 + 2;
#X obj 483 628 expr pow($f1 \, 8);
#X obj 821 99 select left;
#X obj 884 121 select right;
#X obj 953 143 select top;
#X obj 1010 166 select bottom;
#X obj 791 99 bng 15 250 50 0 empty empty empty 17 7 0 10 -262144 -1
-1;
#X obj 860 124 bng 15 250 50 0 empty empty empty 17 7 0 10 -262144
-1 -1;
#X obj 933 144 bng 15 250 50 0 empty empty empty 17 7 0 10 -262144
-1 -1;
#X obj 989 169 bng 15 250 50 0 empty empty empty 17 7 0 10 -262144
-1 -1;
#X obj 239 16 inlet;
#X obj 821 74 symbol;
#X obj 239 57 route list;
#X obj 692 135 r coord;
#X obj 692 166 unpack;
#X obj 837 223 gate 3;
#X obj 953 222 gate 3;
#X msg 953 190 2;
#X msg 1011 193 3;
#X msg 884 190 3;
#X msg 821 187 2;
#X obj -3 225 bng 15 250 50 0 empty empty empty 17 7 0 10 -262144 -1
-1;
#X obj 404 395 switch 5;
#X msg 366 291 1;
#X msg 395 291 2;
#X msg 426 291 3;
#X msg 456 292 4;
#X msg 487 292 5;
#X obj 286 556 expr if($f1>0.35 \, $f1*1.5-0.5 \, 0);
#X floatatom 781 349 5 0 0 0 - - -;
#X floatatom 838 347 5 0 0 0 - - -;
#X floatatom 947 349 5 0 0 0 - - -;
#X floatatom 999 349 5 0 0 0 - - -;
#X obj 1039 253 expr abs(1-$f1);
#X obj 938 254 expr $f1;
#X text 353 227 1 if in source \, 0 if out;
#X obj 746 253 expr abs(1-$f1);
#X obj 850 252 expr $f1;
#X connect 0 0 14 0;
#X connect 1 0 5 0;
#X connect 1 0 3 0;
#X connect 1 1 6 0;
#X connect 1 1 4 0;
#X connect 3 0 7 0;
#X connect 4 0 7 1;
#X connect 5 0 3 1;
#X connect 6 0 4 1;
#X connect 7 0 9 4;
#X connect 7 0 18 0;
#X connect 8 0 12 0;
#X connect 9 0 15 0;
#X connect 9 0 17 0;
#X connect 9 0 51 0;
#X connect 11 0 9 2;
#X connect 11 1 9 3;
#X connect 12 0 9 0;
#X connect 12 1 9 1;
#X connect 14 0 2 0;
#X connect 15 0 52 1;
#X connect 16 0 30 0;
#X connect 24 1 25 0;
#X connect 24 2 58 0;
#X connect 24 3 27 0;
#X connect 24 4 26 0;
#X connect 24 5 31 0;
#X connect 25 0 23 0;
#X connect 25 0 14 1;
#X connect 25 0 28 0;
#X connect 26 0 14 1;
#X connect 26 0 22 0;
#X connect 27 0 14 1;
#X connect 27 0 20 0;
#X connect 30 0 24 0;
#X connect 30 0 29 0;
#X connect 31 0 14 1;
#X connect 31 0 21 0;
#X connect 32 0 36 0;
#X connect 32 0 50 0;
#X connect 32 0 54 0;
#X connect 32 1 33 0;
#X connect 33 0 37 0;
#X connect 33 0 49 0;
#X connect 33 0 55 0;
#X connect 33 1 34 0;
#X connect 34 0 38 0;
#X connect 34 0 47 0;
#X connect 34 0 56 0;
#X connect 34 1 35 0;
#X connect 35 0 39 0;
#X connect 35 0 48 0;
#X connect 35 0 57 0;
#X connect 40 0 42 0;
#X connect 41 0 32 0;
#X connect 42 0 1 0;
#X connect 42 0 11 0;
#X connect 42 0 53 0;
#X connect 42 1 41 0;
#X connect 43 0 44 0;
#X connect 44 0 45 1;
#X connect 44 1 46 1;
#X connect 45 1 66 0;
#X connect 45 2 67 0;
#X connect 46 1 64 0;
#X connect 46 2 63 0;
#X connect 47 0 46 0;
#X connect 48 0 46 0;
#X connect 49 0 45 0;
#X connect 50 0 45 0;
#X connect 52 0 24 1;
#X connect 53 0 52 0;
#X connect 54 0 52 0;
#X connect 55 0 52 0;
#X connect 56 0 52 0;
#X connect 57 0 52 0;
#X connect 58 0 19 0;
#X connect 58 0 14 1;
#X connect 63 0 52 5;
#X connect 63 0 62 0;
#X connect 64 0 52 4;
#X connect 64 0 61 0;
#X connect 66 0 52 2;
#X connect 66 0 59 0;
#X connect 67 0 52 3;
#X connect 67 0 60 0;
