#N canvas 221 207 842 438 10;
#X obj 89 47 inlet;
#X obj 172 20 inlet;
#X obj 327 34 inlet;
#X text 61 27 filename;
#X text 325 11 arraynumber;
#X text 164 4 location;
#X obj 89 120 soundfiler;
#X msg 89 97 read -resize \$1 \$2;
#X obj 89 74 pack s s;
#X msg 327 57 symbol array\$1;
#X obj 89 200 phasor~;
#X obj 89 179 trackspeed;
#X obj 89 224 *~;
#X obj 89 247 tabread4~;
#X msg 140 224 set \$1;
#X obj 89 272 dynamicamplitudes;
#X obj 459 32 inlet;
#X obj 89 296 outlet~;
#X obj 89 149 expr 44100 /$f1;
#X obj 231 18 inlet;
#X text 223 3 granular;
#X obj 231 297 outlet;
#X text 448 14 volume straight;
#X connect 0 0 8 0;
#X connect 1 0 15 1;
#X connect 2 0 9 0;
#X connect 6 0 12 1;
#X connect 6 0 18 0;
#X connect 7 0 6 0;
#X connect 8 0 7 0;
#X connect 9 0 8 1;
#X connect 9 0 14 0;
#X connect 10 0 12 0;
#X connect 11 0 10 0;
#X connect 12 0 13 0;
#X connect 13 0 15 0;
#X connect 14 0 13 0;
#X connect 15 0 17 0;
#X connect 16 0 15 2;
#X connect 18 0 11 0;
#X connect 19 0 21 0;
