#N canvas 327 63 870 657 10;
#X obj 187 76 r inGranZone;
#X obj 170 136 change;
#X obj 170 307 line;
#X msg 189 270 set 0;
#X obj 271 307 line;
#X msg 289 270 set 1;
#X obj 170 163 count 2;
#X obj 227 210 gate 2;
#X obj 170 186 + 1;
#X obj 260 167 bng 15 250 50 0 empty empty empty 17 7 0 10 -262144
-1 -1;
#X obj 171 333 *~;
#X obj 271 334 *~;
#X obj 326 114 inlet~;
#X obj 383 114 inlet~;
#X obj 371 307 line;
#X msg 389 270 set 0;
#X obj 471 307 line;
#X msg 489 270 set 1;
#X obj 371 333 *~;
#X obj 471 334 *~;
#X obj 166 381 +~;
#X obj 385 374 +~;
#X floatatom 106 302 5 0 0 0 - - -;
#X floatatom 226 301 5 0 0 0 - - -;
#X floatatom 331 307 5 0 0 0 - - -;
#X floatatom 430 307 5 0 0 0 - - -;
#X msg 99 115 0;
#X msg 128 116 1;
#X obj 119 92 loadbang;
#X msg 142 270 1 1400;
#X msg 242 270 0 1400;
#X msg 342 270 1 1400;
#X msg 442 270 0 1400;
#X obj 190 434 expr~ if($v1==1 \, $v2 \, $v3);
#X obj 503 372 env~;
#X floatatom 504 416 5 0 0 0 - - -;
#X obj 572 374 env~;
#X floatatom 573 418 5 0 0 0 - - -;
#X obj 187 107 expr abs($f1-1);
#X obj 190 494 *~;
#X obj 231 473 r~ IO;
#X obj 190 590 outlet~;
#X obj 338 593 outlet~;
#X obj 218 556 *~;
#X obj 275 555 *~;
#X obj 292 499 loadbang;
#X obj 292 523 randomF 1;
#X obj 318 550 expr 1-$f1;
#X obj 412 589 outlet~;
#X connect 0 0 38 0;
#X connect 1 0 6 0;
#X connect 2 0 10 1;
#X connect 2 0 22 0;
#X connect 3 0 2 0;
#X connect 4 0 11 1;
#X connect 4 0 23 0;
#X connect 5 0 4 0;
#X connect 6 0 8 0;
#X connect 7 0 3 0;
#X connect 7 0 29 0;
#X connect 7 0 5 0;
#X connect 7 0 30 0;
#X connect 7 1 17 0;
#X connect 7 1 32 0;
#X connect 7 1 15 0;
#X connect 7 1 31 0;
#X connect 8 0 7 0;
#X connect 8 0 9 0;
#X connect 9 0 7 1;
#X connect 10 0 20 0;
#X connect 11 0 20 1;
#X connect 12 0 10 0;
#X connect 12 0 19 0;
#X connect 13 0 11 0;
#X connect 13 0 18 0;
#X connect 14 0 18 1;
#X connect 14 0 24 0;
#X connect 15 0 14 0;
#X connect 16 0 19 1;
#X connect 16 0 25 0;
#X connect 17 0 16 0;
#X connect 18 0 21 0;
#X connect 19 0 21 1;
#X connect 20 0 33 1;
#X connect 20 0 34 0;
#X connect 21 0 33 2;
#X connect 21 0 36 0;
#X connect 26 0 1 0;
#X connect 27 0 1 0;
#X connect 28 0 27 0;
#X connect 28 0 26 0;
#X connect 29 0 2 0;
#X connect 30 0 4 0;
#X connect 31 0 14 0;
#X connect 32 0 16 0;
#X connect 33 0 39 0;
#X connect 34 0 35 0;
#X connect 36 0 37 0;
#X connect 38 0 1 0;
#X connect 38 0 33 0;
#X connect 39 0 43 0;
#X connect 39 0 44 0;
#X connect 39 0 48 0;
#X connect 40 0 39 1;
#X connect 43 0 41 0;
#X connect 44 0 42 0;
#X connect 45 0 46 0;
#X connect 46 0 43 1;
#X connect 46 0 47 0;
#X connect 47 0 44 1;
