#N canvas 4 23 1276 656 10;
#X declare -lib mrpeach;
#X text 4 12 choose audio file;
#X obj 234 48 tgl 15 0 empty 1tgl empty 17 7 0 10 -262144 -1 -1 0 1
;
#X text 4 50 granular synth?;
#X obj 211 9 bng 15 250 50 0 empty empty empty 17 7 0 10 -262144 -1
-1;
#X obj 231 142 fileinit;
#N canvas 0 22 450 278 (subpatch) 0;
#X array array1 472089 float 2;
#X coords 0 1 472089 -1 200 140 1 0 0;
#X restore 329 377 graph;
#X obj 231 8 openpanel ./;
#X msg 285 144 1;
#X obj 234 65 hradio 15 1 0 5 empty 1radio empty 0 -8 0 10 -262144
-1 -1 0;
#X obj 2 244 grid grid1 300 0 1 300 0 1 1 0.001 0.001 9 9 164 384;
#X floatatom 104 553 5 0 0 0 - - -;
#X floatatom 139 553 5 0 0 0 - - -;
#X obj 104 576 pack;
#X obj 104 596 s coord;
#X obj 231 206 dac~;
#N canvas 0 22 450 278 (subpatch) 0;
#X array array2 5.93981e+06 float 2;
#X coords 0 1 5.93981e+06 -1 200 140 1 0 0;
#X restore 533 377 graph;
#X obj 384 299 tgl 15 0 empty empty empty 17 7 0 10 -262144 -1 -1 0
1;
#X text 328 258 center;
#X text 328 280 radium;
#X text 328 298 reverse;
#X obj 383 318 setgranularzone;
#X obj 383 338 s inGranZone;
#X text 3 70 volume dispersion level;
#X obj 285 123 loadbang;
#X text 276 162 synth;
#X text 298 182 cross;
#X floatatom 342 338 5 0 0 0 - - -;
#N canvas 0 22 450 278 (subpatch) 0;
#X array array3 2.85634e+06 float 2;
#X coords 0 1 2.85634e+06 -1 200 140 1 0 0;
#X restore 737 377 graph;
#X obj 531 322 s lop;
#X obj 574 322 s hip;
#X obj 617 322 s compr;
#X obj 531 274 loadbang;
#X obj 176 551 bng 15 250 50 0 empty empty empty 17 7 0 10 -262144
-1 -1;
#X obj 176 570 s moving;
#N canvas 0 22 450 300 (subpatch) 0;
#X array window 259 float 1;
#A 0 0 0.000150591 0.000602275 0.00135478 0.00240764 0.00376022 0.00541174
0.00736117 0.00960734 0.0121489 0.0149843 0.0181119 0.0215298 0.0252359
0.0292279 0.0335035 0.0380601 0.042895 0.0480052 0.0533877 0.0590392
0.0649563 0.0711355 0.077573 0.0842649 0.0912073 0.0983959 0.105826
0.113494 0.121395 0.129524 0.137876 0.146446 0.155229 0.16422 0.173413
0.182803 0.192384 0.20215 0.212095 0.222214 0.2325 0.242948 0.25355
0.264301 0.275194 0.286222 0.297379 0.308658 0.320052 0.331555 0.343159
0.354857 0.366643 0.37851 0.390449 0.402455 0.414519 0.426635 0.438794
0.450991 0.463218 0.475466 0.487729 0.5 0.512271 0.524534 0.536782
0.549009 0.561205 0.573365 0.585481 0.597545 0.609551 0.62149 0.633357
0.645143 0.656841 0.668445 0.679948 0.691342 0.702621 0.713778 0.724806
0.735699 0.74645 0.757052 0.767499 0.777786 0.787905 0.79785 0.807616
0.817197 0.826587 0.83578 0.844771 0.853554 0.862124 0.870476 0.878605
0.886506 0.894174 0.901605 0.908793 0.915736 0.922428 0.928865 0.935044
0.940961 0.946613 0.951995 0.957106 0.96194 0.966497 0.970773 0.974765
0.978471 0.981889 0.985016 0.987852 0.990393 0.992639 0.994589 0.99624
0.997593 0.998645 0.999398 0.999849 1 0.999849 0.999398 0.998645 0.997592
0.996239 0.994588 0.992638 0.990392 0.987851 0.985015 0.981887 0.978469
0.974763 0.970771 0.966495 0.961939 0.957104 0.951993 0.946611 0.940959
0.935042 0.928863 0.922425 0.915733 0.908791 0.901602 0.894171 0.886503
0.878602 0.870473 0.862121 0.853551 0.844768 0.835777 0.826584 0.817194
0.807613 0.797847 0.787901 0.777782 0.767496 0.757048 0.746446 0.735695
0.724802 0.713774 0.702617 0.691338 0.679944 0.668441 0.656837 0.645139
0.633353 0.621486 0.609547 0.597541 0.585477 0.573361 0.561201 0.549004
0.536778 0.52453 0.512266 0.499996 0.487725 0.475462 0.463213 0.450987
0.43879 0.42663 0.414515 0.40245 0.390445 0.378505 0.366639 0.354853
0.343155 0.331551 0.320048 0.308654 0.297375 0.286218 0.27519 0.264297
0.253547 0.242944 0.232497 0.222211 0.212092 0.202146 0.19238 0.182799
0.17341 0.164217 0.155226 0.146443 0.137873 0.129521 0.121392 0.113491
0.105823 0.0983929 0.0912043 0.084262 0.0775701 0.0711327 0.0649537
0.0590366 0.0533852 0.0480028 0.0428927 0.038058 0.0335014 0.0292259
0.025234 0.0215281 0.0181103 0.0149829 0.0121476 0.00960615 0.0073601
0.00541082 0.00375944 0.00240701 0.00135431 0.000601947 0.000150442
0 0.000150591 0.000602275;
#X coords 0 1 258 0 150 100 1 0 0;
#X restore 1 122 graph;
#X obj 344 47 tgl 15 0 empty empty empty 17 7 0 10 -262144 -1 -1 0
1;
#X obj 321 8 bng 15 250 50 0 empty empty empty 17 7 0 10 -262144 -1
-1;
#X obj 341 7 openpanel ./;
#X obj 344 64 hradio 15 1 0 5 empty empty empty 0 -8 0 10 -262144 -1
-1 0;
#X obj 341 205 dac~;
#X obj 395 122 loadbang;
#X text 386 161 synth;
#X text 408 181 cross;
#X obj 454 48 tgl 15 0 empty empty empty 17 7 0 10 -262144 -1 -1 0
1;
#X obj 431 9 bng 15 250 50 0 empty empty empty 17 7 0 10 -262144 -1
-1;
#X obj 451 8 openpanel ./;
#X obj 454 65 hradio 15 1 0 5 empty empty empty 0 -8 0 10 -262144 -1
-1 0;
#X obj 451 206 dac~;
#X obj 505 123 loadbang;
#X text 496 162 synth;
#X text 518 182 cross;
#X msg 454 28 top;
#X obj 564 47 tgl 15 0 empty empty empty 17 7 0 10 -262144 -1 -1 0
1;
#X obj 541 8 bng 15 250 50 0 empty empty empty 17 7 0 10 -262144 -1
-1;
#X obj 561 7 openpanel ./;
#X obj 564 64 hradio 15 1 0 5 empty empty empty 0 -8 0 10 -262144 -1
-1 0;
#X obj 561 205 dac~;
#X obj 615 122 loadbang;
#X text 606 161 synth;
#X text 628 181 cross;
#X msg 564 27 top;
#X obj 675 48 tgl 15 0 empty empty empty 17 7 0 10 -262144 -1 -1 0
1;
#X obj 652 9 bng 15 250 50 0 empty empty empty 17 7 0 10 -262144 -1
-1;
#X obj 672 8 openpanel ./;
#X obj 675 65 hradio 15 1 0 5 empty empty empty 0 -8 0 10 -262144 -1
-1 0;
#X obj 672 206 dac~;
#X obj 726 123 loadbang;
#X text 717 162 synth;
#X text 739 182 cross;
#X msg 675 28 top;
#X obj 785 47 tgl 15 0 empty empty empty 17 7 0 10 -262144 -1 -1 0
1;
#X obj 762 8 bng 15 250 50 0 empty empty empty 17 7 0 10 -262144 -1
-1;
#X obj 782 7 openpanel ./;
#X obj 785 64 hradio 15 1 0 5 empty empty empty 0 -8 0 10 -262144 -1
-1 0;
#X obj 782 205 dac~;
#X obj 836 122 loadbang;
#X text 827 161 synth;
#X text 849 181 cross;
#X msg 785 27 top;
#X obj 905 48 tgl 15 0 empty empty empty 17 7 0 10 -262144 -1 -1 0
1;
#X obj 882 9 bng 15 250 50 0 empty empty empty 17 7 0 10 -262144 -1
-1;
#X obj 902 8 openpanel ./;
#X obj 905 65 hradio 15 1 0 5 empty empty empty 0 -8 0 10 -262144 -1
-1 0;
#X obj 902 206 dac~;
#X obj 956 123 loadbang;
#X text 947 162 synth;
#X text 969 182 cross;
#X msg 905 28 top;
#X obj 1015 47 tgl 15 0 empty empty empty 17 7 0 10 -262144 -1 -1 0
1;
#X obj 992 8 bng 15 250 50 0 empty empty empty 17 7 0 10 -262144 -1
-1;
#X obj 1012 7 openpanel ./;
#X obj 1015 64 hradio 15 1 0 5 empty empty empty 0 -8 0 10 -262144
-1 -1 0;
#X obj 1012 205 dac~;
#X obj 1066 122 loadbang;
#X text 1057 161 synth;
#X text 1079 181 cross;
#X msg 1015 27 top;
#X text 327 242 GRANULAR REGION SETTINGS;
#X text 3 224 grain shape;
#N canvas 0 22 450 278 (subpatch) 0;
#X array array5 424557 float 2;
#X coords 0 1 424557 -1 200 140 1 0 0;
#X restore 329 537 graph;
#N canvas 0 22 450 278 (subpatch) 0;
#X array array6 2.71213e+06 float 2;
#X coords 0 1 2.71213e+06 -1 200 140 1 0 0;
#X restore 533 537 graph;
#N canvas 0 22 450 278 (subpatch) 0;
#X array array7 723552 float 2;
#X coords 0 1 723552 -1 200 140 1 0 0;
#X restore 737 537 graph;
#N canvas 0 22 450 278 (subpatch) 0;
#X array array4 273616 float 2;
#X coords 0 1 273616 -1 200 140 1 0 0;
#X restore 941 377 graph;
#N canvas 0 22 450 278 (subpatch) 0;
#X array array8 2.70454e+06 float 2;
#X coords 0 1 2.70454e+06 -1 200 140 1 0 0;
#X restore 941 537 graph;
#X msg 395 143 2;
#X msg 505 144 3;
#X msg 615 143 4;
#X msg 726 144 5;
#X msg 836 143 6;
#X msg 956 144 7;
#X msg 1066 143 8;
#X text 528 242 LOW PASS \, HIGH PASS \, COMPRESSOR;
#X obj 341 141 fileinit;
#X obj 451 142 fileinit;
#X obj 561 141 fileinit;
#X obj 672 142 fileinit;
#X obj 782 141 fileinit;
#X obj 902 142 fileinit;
#X obj 1012 141 fileinit;
#X obj 3 603 s coord;
#X msg 240 582 grid;
#X msg 287 582 osc;
#X obj 3 553 udpreceive 9000;
#X obj 240 555 bng 15 250 50 0 empty empty empty 17 7 0 10 -262144
-1 -1;
#X obj 287 555 bng 15 250 50 0 empty empty empty 17 7 0 10 -262144
-1 -1;
#X obj 242 608 s grid;
#X obj 293 607 s osc;
#X floatatom 105 618 5 0 0 0 - - -;
#X floatatom 61 618 5 0 0 0 - - -;
#N canvas 531 346 391 291 sourceSpigot 0;
#X obj 114 15 inlet;
#X obj 221 246 outlet;
#X obj 24 180 outlet;
#X obj 69 180 outlet;
#X obj 221 157 spigot;
#X obj 267 15 loadbang;
#X msg 254 69 1;
#X msg 288 69 0;
#X obj 114 63 unpackOSC;
#X obj 114 180 pack;
#X msg 193 186 1;
#X obj 114 210 spigot;
#X msg 160 186 0;
#X obj 301 45 r osc;
#X obj 254 45 r grid;
#X obj 114 114 unpack 0 0 0;
#X obj 114 83 route /blob0;
#X obj 221 15 inlet;
#X obj 113 142 * 1;
#X obj 155 143 * 1;
#X obj 22 216 s coord;
#X obj 71 240 s moving;
#X connect 0 0 8 0;
#X connect 4 0 1 0;
#X connect 5 0 6 0;
#X connect 5 0 12 0;
#X connect 6 0 4 1;
#X connect 7 0 4 1;
#X connect 8 0 16 0;
#X connect 9 0 11 0;
#X connect 9 0 20 0;
#X connect 10 0 11 1;
#X connect 11 0 1 0;
#X connect 12 0 11 1;
#X connect 13 0 7 0;
#X connect 13 0 10 0;
#X connect 14 0 6 0;
#X connect 14 0 12 0;
#X connect 15 0 18 0;
#X connect 15 1 19 0;
#X connect 16 0 15 0;
#X connect 17 0 4 0;
#X connect 18 0 9 0;
#X connect 18 0 2 0;
#X connect 18 0 21 0;
#X connect 19 0 9 1;
#X connect 19 0 3 0;
#X connect 19 0 21 0;
#X restore 3 577 pd sourceSpigot;
#X obj 1131 46 tgl 15 0 empty empty empty 17 7 0 10 -262144 -1 -1 0
1;
#X obj 1108 7 bng 15 250 50 0 empty empty empty 17 7 0 10 -262144 -1
-1;
#X obj 1128 6 openpanel ./;
#X obj 1131 63 hradio 15 1 0 5 empty empty empty 0 -8 0 10 -262144
-1 -1 0;
#X obj 1128 204 dac~;
#X obj 1182 121 loadbang;
#X text 1173 160 synth;
#X text 1195 180 cross;
#X msg 1131 26 top;
#X obj 1128 140 fileinit;
#X msg 1182 142 9;
#N canvas 0 22 450 278 (subpatch) 0;
#X array array9 1.37857e+06 float 2;
#X coords 0 1 1.37857e+06 -1 200 140 1 0 0;
#X restore 331 697 graph;
#X obj 4 640 import mrpeach;
#X obj 154 190 bng 15 250 50 0 empty empty empty 17 7 0 10 -262144
-1 -1;
#X obj 154 209 s egInit;
#N canvas 176 274 352 371 eg1 0;
#X obj 53 51 r egInit;
#X obj 43 251 outlet;
#X obj 93 251 outlet;
#X obj 143 251 outlet;
#X obj 193 251 outlet;
#X msg 53 90 ./bells.wav;
#X msg 116 194 3;
#X msg 99 161 1;
#X msg 74 136 0.6 0.3;
#X connect 0 0 5 0;
#X connect 0 0 8 0;
#X connect 0 0 7 0;
#X connect 0 0 6 0;
#X connect 5 0 1 0;
#X connect 6 0 4 0;
#X connect 7 0 3 0;
#X connect 8 0 2 0;
#X restore 278 29 pd eg1;
#X symbolatom 1047 103 10 0 0 0 - - -;
#X obj 1046 81 symbol;
#X symbolatom 1171 103 10 0 0 0 - - -;
#X obj 1170 81 symbol;
#X symbolatom 819 105 10 0 0 0 - - -;
#X obj 818 83 symbol;
#X symbolatom 943 105 10 0 0 0 - - -;
#X obj 942 83 symbol;
#X symbolatom 598 102 10 0 0 0 - - -;
#X obj 597 80 symbol;
#X symbolatom 722 102 10 0 0 0 - - -;
#X obj 721 80 symbol;
#X symbolatom 370 104 10 0 0 0 - - -;
#X obj 369 82 symbol;
#X symbolatom 494 104 10 0 0 0 - - -;
#X obj 494 82 symbol;
#X symbolatom 277 103 10 0 0 0 - - -;
#X obj 276 84 symbol;
#N canvas 521 273 352 371 eg2 0;
#X obj 53 51 r egInit;
#X obj 43 251 outlet;
#X obj 93 251 outlet;
#X obj 143 251 outlet;
#X obj 193 251 outlet;
#X msg 117 119 bottom;
#X msg 83 88 ./harbor.wav;
#X msg 82 155 0;
#X msg 99 188 1;
#X connect 0 0 6 0;
#X connect 0 0 5 0;
#X connect 0 0 7 0;
#X connect 0 0 8 0;
#X connect 5 0 2 0;
#X connect 6 0 1 0;
#X connect 7 0 3 0;
#X connect 8 0 4 0;
#X restore 395 27 pd eg2;
#N canvas 521 273 352 371 eg3 0;
#X obj 53 51 r egInit;
#X obj 43 251 outlet;
#X obj 93 251 outlet;
#X obj 143 251 outlet;
#X obj 193 251 outlet;
#X msg 82 155 1;
#X msg 99 188 2;
#X msg 53 90 ./plane.wav;
#X msg 69 119 0 0.7;
#X connect 0 0 7 0;
#X connect 0 0 8 0;
#X connect 0 0 5 0;
#X connect 0 0 6 0;
#X connect 5 0 3 0;
#X connect 6 0 4 0;
#X connect 7 0 1 0;
#X connect 8 0 2 0;
#X restore 493 28 pd eg3;
#N canvas 669 264 352 371 eg4 0;
#X obj 53 51 r egInit;
#X obj 43 251 outlet;
#X obj 93 251 outlet;
#X obj 143 251 outlet;
#X obj 193 251 outlet;
#X msg 53 90 ./seagull.wav;
#X msg 82 155 0;
#X msg 99 188 3;
#X msg 68 119 0.7 0;
#X connect 0 0 5 0;
#X connect 0 0 8 0;
#X connect 0 0 6 0;
#X connect 0 0 7 0;
#X connect 5 0 1 0;
#X connect 6 0 3 0;
#X connect 7 0 4 0;
#X connect 8 0 2 0;
#X restore 593 28 pd eg4;
#N canvas 597 274 352 371 eg5 0;
#X obj 53 51 r egInit;
#X obj 43 251 outlet;
#X obj 93 251 outlet;
#X obj 143 251 outlet;
#X obj 193 251 outlet;
#X msg 53 90 ./storm.wav;
#X msg 68 120 1 1;
#X msg 99 188 2;
#X msg 82 155 0;
#X connect 0 0 5 0;
#X connect 0 0 6 0;
#X connect 0 0 8 0;
#X connect 0 0 7 0;
#X connect 5 0 1 0;
#X connect 6 0 2 0;
#X connect 7 0 4 0;
#X connect 8 0 3 0;
#X restore 709 27 pd eg5;
#N canvas 521 273 352 371 eg6 0;
#X msg 99 188 2;
#X obj 53 51 r egInit;
#X obj 43 251 outlet;
#X obj 93 251 outlet;
#X obj 143 251 outlet;
#X obj 193 251 outlet;
#X msg 53 90 ./storm2.wav;
#X msg 82 155 1;
#X msg 68 119 0.3 1;
#X connect 0 0 5 0;
#X connect 1 0 6 0;
#X connect 1 0 8 0;
#X connect 1 0 7 0;
#X connect 1 0 0 0;
#X connect 6 0 2 0;
#X connect 7 0 4 0;
#X connect 8 0 3 0;
#X restore 828 27 pd eg6;
#N canvas 521 273 352 371 eg7 0;
#X msg 53 90 ./train.wav;
#X msg 99 188 2;
#X obj 53 51 r egInit;
#X obj 43 251 outlet;
#X obj 93 251 outlet;
#X obj 143 251 outlet;
#X obj 193 251 outlet;
#X msg 81 155 1;
#X msg 68 119 0 0.2;
#X connect 0 0 3 0;
#X connect 1 0 6 0;
#X connect 2 0 0 0;
#X connect 2 0 8 0;
#X connect 2 0 7 0;
#X connect 2 0 1 0;
#X connect 7 0 5 0;
#X connect 8 0 4 0;
#X restore 943 26 pd eg7;
#N canvas 521 273 352 371 eg8 0;
#X obj 53 51 r egInit;
#X obj 43 251 outlet;
#X obj 93 251 outlet;
#X obj 143 251 outlet;
#X obj 193 251 outlet;
#X msg 53 90 ./waves.wav;
#X msg 68 119 top;
#X msg 99 188 2;
#X msg 82 155 1;
#X connect 0 0 5 0;
#X connect 0 0 6 0;
#X connect 0 0 8 0;
#X connect 0 0 7 0;
#X connect 5 0 1 0;
#X connect 6 0 2 0;
#X connect 7 0 4 0;
#X connect 8 0 3 0;
#X restore 1043 26 pd eg8;
#N canvas 521 273 352 371 eg9 0;
#X obj 53 51 r egInit;
#X obj 43 251 outlet;
#X obj 93 251 outlet;
#X obj 143 251 outlet;
#X obj 193 251 outlet;
#X msg 53 90 ./whistle.wav;
#X msg 82 155 1;
#X msg 68 119 0.7 0.7;
#X msg 99 188 1;
#X connect 0 0 5 0;
#X connect 0 0 7 0;
#X connect 0 0 6 0;
#X connect 0 0 8 0;
#X connect 5 0 1 0;
#X connect 6 0 3 0;
#X connect 7 0 2 0;
#X connect 8 0 4 0;
#X restore 1163 25 pd eg9;
#X msg 383 259 0.5 0.5;
#N canvas 350 241 837 485 drawGrain 0;
#X msg 168 236 0;
#X obj 93 263 osc~;
#X obj 92 215 samplerate~;
#X obj 93 286 *~ -0.5;
#X obj 278 347 *~ 0.8;
#X obj 525 242 line~;
#X obj 407 329 cos~;
#X obj 525 218 pack 0 50;
#X floatatom 527 147 0 0 0 0 - - -;
#X obj 409 248 -~ 0.5;
#X obj 407 277 *~;
#X obj 527 171 / 10;
#X obj 407 304 clip~ -0.5 0.5;
#X obj 525 267 +~ 1;
#X obj 527 195 max 0;
#X obj 387 405 tabwrite~ window;
#X msg 498 167 0;
#X obj 407 380 +~ 0.5;
#X msg 466 108 4;
#X obj 407 356 *~ 0.5;
#X msg 382 144 bang;
#X msg 136 122 bang;
#X msg 197 146 bang;
#X obj 168 401 tabwrite~ window;
#X obj 283 402 tabwrite~ window;
#X obj 93 239 / 256;
#X obj 170 343 *~ 1;
#X msg 407 196 170;
#X obj 407 228 phasor~;
#X obj 93 306 +~ 0.5;
#X obj 305 376 +~ 0.1;
#X obj 158 6 inlet;
#X obj 158 28 + 1;
#X msg 506 107 3;
#X msg 546 108 2;
#X msg 584 107 1;
#X obj 319 65 gate 6;
#X floatatom 83 49 5 0 0 0 - - -;
#X obj 242 26 t b f;
#X connect 0 0 1 1;
#X connect 1 0 3 0;
#X connect 2 0 25 0;
#X connect 3 0 29 0;
#X connect 4 0 30 0;
#X connect 5 0 13 0;
#X connect 6 0 19 0;
#X connect 7 0 5 0;
#X connect 8 0 11 0;
#X connect 9 0 10 0;
#X connect 10 0 12 0;
#X connect 11 0 14 0;
#X connect 12 0 6 0;
#X connect 13 0 10 1;
#X connect 14 0 7 0;
#X connect 16 0 28 1;
#X connect 17 0 15 0;
#X connect 18 0 8 0;
#X connect 19 0 17 0;
#X connect 20 0 15 0;
#X connect 20 0 16 0;
#X connect 20 0 27 0;
#X connect 21 0 0 0;
#X connect 21 0 2 0;
#X connect 21 0 23 0;
#X connect 22 0 0 0;
#X connect 22 0 2 0;
#X connect 22 0 24 0;
#X connect 25 0 1 0;
#X connect 26 0 23 0;
#X connect 27 0 28 0;
#X connect 28 0 9 0;
#X connect 29 0 4 0;
#X connect 29 0 26 0;
#X connect 30 0 24 0;
#X connect 31 0 32 0;
#X connect 32 0 37 0;
#X connect 32 0 38 0;
#X connect 33 0 8 0;
#X connect 34 0 8 0;
#X connect 35 0 8 0;
#X connect 36 0 21 0;
#X connect 36 1 22 0;
#X connect 36 2 18 0;
#X connect 36 2 20 0;
#X connect 36 3 33 0;
#X connect 36 3 20 0;
#X connect 36 4 34 0;
#X connect 36 4 20 0;
#X connect 36 5 35 0;
#X connect 36 5 20 0;
#X connect 38 0 36 1;
#X connect 38 1 36 0;
#X restore 1126 258 pd drawGrain;
#X obj 417 279 loadbang;
#X text 3 31 enter coordinates (e.g.: 0.3 1);
#N canvas 321 278 861 442 controlPanel 0;
#X obj 257 -168 vsl 15 128 5 500 1 0 q1 empty empty 0 -9 0 10 -262144
-1 -1 0 1;
#X obj 277 -168 vsl 15 128 5 500 1 0 q2 empty empty 0 -9 0 10 -262144
-1 -1 0 1;
#X obj 297 -168 vsl 15 128 5 500 1 0 q3 empty empty 0 -9 0 10 -262144
-1 -1 0 1;
#X obj 317 -168 vsl 15 128 5 500 1 0 q4 empty empty 0 -9 0 10 -262144
-1 -1 0 1;
#X obj 131 -165 vsl 15 128 100 5000 1 0 f1 empty empty 0 -9 0 10 -262144
-1 -1 0 1;
#X obj 151 -165 vsl 15 128 100 5000 1 0 f2 empty empty 0 -9 0 10 -262144
-1 -1 0 1;
#X obj 171 -166 vsl 15 128 100 5000 1 0 f3 empty empty 0 -9 0 10 -262144
-1 -1 0 1;
#X obj 191 -166 vsl 15 128 100 5000 1 0 f4 empty empty 0 -9 0 10 -262144
-1 -1 0 1;
#X obj 12 -165 vsl 15 128 5 100 0 0 dur1 empty empty 0 -9 0 10 -262144
-1 -1 0 1;
#X obj 39 -167 vsl 15 128 1 100 0 0 dens1 empty empty 0 -9 0 10 -262144
-1 -1 0 1;
#X text 38 -190 densita;
#X text -16 -190 durata;
#X text 128 -191 frequenza;
#X text 253 -193 Q;
#X obj 204 44 s moving;
#X obj 36 34 bng 15 250 50 0 empty empty empty 17 7 0 10 -262144 -1
-1;
#X floatatom 313 -6 5 0 0 0 - - -;
#X floatatom 349 -10 5 0 0 0 - - -;
#X floatatom 391 -9 5 0 0 0 - - -;
#X floatatom 430 -10 5 0 0 0 - - -;
#X floatatom 313 34 5 0 0 0 - - -;
#X floatatom 349 32 5 0 0 0 - - -;
#X floatatom 393 32 5 0 0 0 - - -;
#X floatatom 438 33 5 0 0 0 - - -;
#X floatatom 35 -5 5 0 0 0 - - -;
#X floatatom -10 -5 5 0 0 0 - - -;
#X obj 43 85 s moving;
#X obj 455 -167 vsl 15 128 100 5000 1 0 f4 empty empty 0 -9 0 10 -262144
-1 -1 0 1;
#X obj 431 -171 vsl 15 128 100 5000 1 0 f4 empty empty 0 -9 0 10 -262144
-1 -1 0 1;
#X obj 504 -166 vsl 15 128 100 5000 1 0 f4 empty empty 0 -9 0 10 -262144
-1 -1 0 1;
#X obj 562 -173 vsl 15 128 5 500 1 0 q3 empty empty 0 -9 0 10 -262144
-1 -1 0 1;
#X obj 582 -173 vsl 15 128 5 500 1 0 q4 empty empty 0 -9 0 10 -262144
-1 -1 0 1;
#X obj 643 -173 vsl 15 128 5 500 1 0 q4 empty empty 0 -9 0 10 -262144
-1 -1 0 1;
#X obj 543 179 s dry;
#X obj 586 178 s wet;
#X obj 630 178 s roomsize;
#X obj 706 178 s damping;
#X obj 542 36 vsl 15 128 0 1 0 0 empty empty empty 0 -9 0 10 -262144
-1 -1 0 1;
#X obj 592 36 vsl 15 128 0 1 0 0 empty empty empty 0 -9 0 10 -262144
-1 -1 0 1;
#X obj 625 28 vsl 15 128 0 1 0 0 empty empty empty 0 -9 0 10 -262144
-1 -1 0 1;
#X obj 697 30 vsl 15 128 0 1 0 0 empty empty empty 0 -9 0 10 -262144
-1 -1 0 1;
#X floatatom 727 145 5 0 0 0 - - -;
#X floatatom 645 140 5 0 0 0 - - -;
#X floatatom 607 200 5 0 0 0 - - -;
#X floatatom 547 202 5 0 0 0 - - -;
#X connect 0 0 14 0;
#X connect 0 0 16 0;
#X connect 1 0 14 0;
#X connect 1 0 17 0;
#X connect 2 0 14 0;
#X connect 2 0 18 0;
#X connect 3 0 14 0;
#X connect 3 0 19 0;
#X connect 4 0 14 0;
#X connect 4 0 20 0;
#X connect 5 0 14 0;
#X connect 5 0 21 0;
#X connect 6 0 14 0;
#X connect 6 0 22 0;
#X connect 7 0 14 0;
#X connect 7 0 23 0;
#X connect 8 0 14 0;
#X connect 8 0 25 0;
#X connect 8 0 15 0;
#X connect 9 0 14 0;
#X connect 9 0 24 0;
#X connect 9 0 15 0;
#X connect 15 0 26 0;
#X connect 27 0 7 0;
#X connect 27 0 6 0;
#X connect 28 0 5 0;
#X connect 28 0 4 0;
#X connect 29 0 27 0;
#X connect 29 0 28 0;
#X connect 30 0 1 0;
#X connect 30 0 0 0;
#X connect 31 0 3 0;
#X connect 31 0 2 0;
#X connect 32 0 31 0;
#X connect 32 0 30 0;
#X connect 37 0 33 0;
#X connect 37 0 44 0;
#X connect 38 0 34 0;
#X connect 38 0 43 0;
#X connect 39 0 35 0;
#X connect 39 0 42 0;
#X connect 40 0 36 0;
#X connect 40 0 41 0;
#X restore 1126 277 pd controlPanel;
#X obj 1126 238 hradio 15 1 0 7 empty empty empty 0 -8 0 10 -262144
-1 -1 0;
#X msg 344 27 bottom;
#X msg 234 28 0 0.5;
#X msg 384 279 0.36;
#N canvas 362 177 216 258 IO 0;
#X obj 39 -18 r coord;
#X obj 41 168 s~ IO;
#X obj 41 135 line~;
#X obj 39 45 select 0;
#X msg 135 79 0;
#X obj 135 57 loadbang;
#X msg 83 81 0 1400;
#X obj 39 5 unpack;
#X msg 40 82 1 1400;
#X connect 0 0 7 0;
#X connect 2 0 1 0;
#X connect 3 0 6 0;
#X connect 3 1 8 0;
#X connect 4 0 2 0;
#X connect 5 0 4 0;
#X connect 6 0 2 0;
#X connect 7 0 3 0;
#X connect 8 0 2 0;
#X restore 175 592 pd IO;
#X obj 341 181 flowscross;
#X obj 231 182 flowscross;
#X obj 451 182 flowscross;
#X obj 561 181 flowscross;
#X obj 672 182 flowscross;
#X obj 782 181 flowscross;
#X obj 902 182 flowscross;
#X obj 1012 181 flowscross;
#X obj 1128 180 flowscross;
#X obj 239 162 synth;
#X obj 349 161 synth;
#X obj 459 162 synth;
#X obj 569 161 synth;
#X obj 680 162 synth;
#X obj 790 161 synth;
#X obj 910 162 synth;
#X obj 1020 161 synth;
#X obj 1136 160 synth;
#X msg 857 284 0.1;
#X msg 894 284 0.2;
#X msg 928 283 0.5;
#X msg 964 284 1;
#X msg 1002 282 2;
#X obj 858 323 s var;
#X obj 855 257 loadbang;
#X msg 822 285 0;
#X obj 900 322 r var;
#X floatatom 939 322 5 0 0 0 - - -;
#X text 151 171 BANG ME!!!!;
#X msg 574 303 100;
#X msg 531 302 7000;
#X obj 665 263 r distfromcenter;
#X obj 680 321 int;
#X floatatom 719 322 5 0 0 0 - - -;
#X obj 774 284 gate 3;
#X obj 772 262 t b f;
#X msg 617 302 -0.8;
#X obj 666 292 expr $f1*3.33+1;
#X connect 1 0 4 2;
#X connect 3 0 6 0;
#X connect 4 0 183 0;
#X connect 4 0 191 0;
#X connect 4 1 191 1;
#X connect 6 0 4 0;
#X connect 7 0 4 3;
#X connect 8 0 4 4;
#X connect 9 0 10 0;
#X connect 9 0 32 0;
#X connect 9 1 11 0;
#X connect 9 1 32 0;
#X connect 10 0 12 0;
#X connect 11 0 12 1;
#X connect 12 0 13 0;
#X connect 12 0 129 1;
#X connect 16 0 20 2;
#X connect 20 0 21 0;
#X connect 20 0 26 0;
#X connect 23 0 7 0;
#X connect 31 0 212 0;
#X connect 31 0 211 0;
#X connect 31 0 218 0;
#X connect 32 0 33 0;
#X connect 35 0 112 2;
#X connect 36 0 37 0;
#X connect 37 0 112 0;
#X connect 38 0 112 4;
#X connect 40 0 104 0;
#X connect 43 0 113 2;
#X connect 44 0 45 0;
#X connect 45 0 113 0;
#X connect 46 0 113 4;
#X connect 48 0 105 0;
#X connect 51 0 113 1;
#X connect 52 0 114 2;
#X connect 53 0 54 0;
#X connect 54 0 114 0;
#X connect 55 0 114 4;
#X connect 57 0 106 0;
#X connect 60 0 114 1;
#X connect 61 0 115 2;
#X connect 62 0 63 0;
#X connect 63 0 115 0;
#X connect 64 0 115 4;
#X connect 66 0 107 0;
#X connect 69 0 115 1;
#X connect 70 0 116 2;
#X connect 71 0 72 0;
#X connect 72 0 116 0;
#X connect 73 0 116 4;
#X connect 75 0 108 0;
#X connect 78 0 116 1;
#X connect 79 0 117 2;
#X connect 80 0 81 0;
#X connect 81 0 117 0;
#X connect 82 0 117 4;
#X connect 84 0 109 0;
#X connect 87 0 117 1;
#X connect 88 0 118 2;
#X connect 89 0 90 0;
#X connect 90 0 118 0;
#X connect 91 0 118 4;
#X connect 93 0 110 0;
#X connect 96 0 118 1;
#X connect 104 0 112 3;
#X connect 105 0 113 3;
#X connect 106 0 114 3;
#X connect 107 0 115 3;
#X connect 108 0 116 3;
#X connect 109 0 117 3;
#X connect 110 0 118 3;
#X connect 112 0 182 0;
#X connect 112 0 192 0;
#X connect 112 1 192 1;
#X connect 113 0 184 0;
#X connect 113 0 193 0;
#X connect 113 1 193 1;
#X connect 114 0 185 0;
#X connect 114 0 194 0;
#X connect 114 1 194 1;
#X connect 115 0 186 0;
#X connect 115 0 195 0;
#X connect 115 1 195 1;
#X connect 116 0 187 0;
#X connect 116 0 196 0;
#X connect 116 1 196 1;
#X connect 117 0 188 0;
#X connect 117 0 197 0;
#X connect 117 1 197 1;
#X connect 118 0 189 0;
#X connect 118 0 198 0;
#X connect 118 1 198 1;
#X connect 120 0 125 0;
#X connect 121 0 126 0;
#X connect 122 0 129 0;
#X connect 123 0 120 0;
#X connect 124 0 121 0;
#X connect 129 0 128 0;
#X connect 129 1 127 0;
#X connect 129 2 119 0;
#X connect 130 0 139 2;
#X connect 131 0 132 0;
#X connect 132 0 139 0;
#X connect 133 0 139 4;
#X connect 135 0 140 0;
#X connect 138 0 139 1;
#X connect 139 0 190 0;
#X connect 139 0 199 0;
#X connect 139 1 199 1;
#X connect 140 0 139 3;
#X connect 143 0 144 0;
#X connect 145 0 4 0;
#X connect 145 0 163 0;
#X connect 145 1 4 1;
#X connect 145 2 1 0;
#X connect 145 3 8 0;
#X connect 147 0 146 0;
#X connect 149 0 148 0;
#X connect 151 0 150 0;
#X connect 153 0 152 0;
#X connect 155 0 154 0;
#X connect 157 0 156 0;
#X connect 159 0 158 0;
#X connect 161 0 160 0;
#X connect 163 0 162 0;
#X connect 164 0 112 0;
#X connect 164 0 159 0;
#X connect 164 1 112 1;
#X connect 164 2 35 0;
#X connect 164 3 38 0;
#X connect 165 0 113 0;
#X connect 165 0 161 0;
#X connect 165 1 113 1;
#X connect 165 2 43 0;
#X connect 165 3 46 0;
#X connect 166 0 114 0;
#X connect 166 0 155 0;
#X connect 166 1 114 1;
#X connect 166 2 52 0;
#X connect 166 3 55 0;
#X connect 167 0 115 0;
#X connect 167 0 157 0;
#X connect 167 1 115 1;
#X connect 167 2 61 0;
#X connect 167 3 64 0;
#X connect 168 0 116 0;
#X connect 168 0 151 0;
#X connect 168 1 116 1;
#X connect 168 2 70 0;
#X connect 168 3 73 0;
#X connect 169 0 117 0;
#X connect 169 0 153 0;
#X connect 169 1 117 1;
#X connect 169 2 79 0;
#X connect 169 3 82 0;
#X connect 170 0 118 0;
#X connect 170 0 147 0;
#X connect 170 1 118 1;
#X connect 170 2 88 0;
#X connect 170 3 91 0;
#X connect 171 0 139 0;
#X connect 171 0 149 0;
#X connect 171 1 139 1;
#X connect 171 2 130 0;
#X connect 171 3 133 0;
#X connect 172 0 20 0;
#X connect 174 0 172 0;
#X connect 174 0 180 0;
#X connect 177 0 173 0;
#X connect 178 0 112 1;
#X connect 179 0 4 1;
#X connect 180 0 20 1;
#X connect 182 2 39 1;
#X connect 182 2 39 0;
#X connect 183 0 14 0;
#X connect 183 1 14 1;
#X connect 184 0 47 0;
#X connect 184 1 47 1;
#X connect 185 0 56 0;
#X connect 185 1 56 1;
#X connect 186 0 65 0;
#X connect 186 1 65 1;
#X connect 187 0 74 0;
#X connect 187 1 74 1;
#X connect 188 0 83 0;
#X connect 188 1 83 1;
#X connect 189 2 92 1;
#X connect 189 2 92 0;
#X connect 190 0 134 0;
#X connect 190 1 134 1;
#X connect 191 0 183 1;
#X connect 192 0 182 1;
#X connect 193 0 184 1;
#X connect 194 0 185 1;
#X connect 195 0 186 1;
#X connect 196 0 187 1;
#X connect 197 0 188 1;
#X connect 198 0 189 1;
#X connect 199 0 190 1;
#X connect 200 0 205 0;
#X connect 201 0 205 0;
#X connect 202 0 205 0;
#X connect 203 0 205 0;
#X connect 204 0 205 0;
#X connect 206 0 201 0;
#X connect 207 0 205 0;
#X connect 208 0 209 0;
#X connect 211 0 29 0;
#X connect 212 0 28 0;
#X connect 213 0 219 0;
#X connect 214 0 215 0;
#X connect 214 0 217 0;
#X connect 216 0 204 0;
#X connect 216 1 201 0;
#X connect 216 2 200 0;
#X connect 217 0 216 1;
#X connect 217 1 216 0;
#X connect 218 0 30 0;
#X connect 219 0 214 0;
