#N canvas 130 203 952 406 10;
#X obj 18 18 inlet~;
#X obj 18 84 outlet~;
#X obj 168 51 4grains;
#X obj 18 51 4grains;
#X obj 118 51 4grains;
#X obj 68 51 4grains;
#X connect 0 0 2 0;
#X connect 0 0 3 0;
#X connect 0 0 4 0;
#X connect 0 0 5 0;
#X connect 2 0 1 0;
#X connect 3 0 1 0;
#X connect 4 0 1 0;
#X connect 5 0 1 0;
