#N canvas 56 235 986 471 10;
#X obj 171 434 outlet~;
#X obj 54 119 inlet~;
#X obj 82 173 phasor~;
#X obj 82 238 *~ 256;
#X obj 82 148 expr 1000/$f1;
#X obj 82 194 +~;
#X obj 82 218 wrap~;
#X obj 203 220 random 100;
#X obj 203 244 moses 50;
#X obj 203 171 loadbang;
#X obj 203 196 metro;
#X msg 203 265 1;
#X msg 240 265 0;
#X obj 203 291 sig~;
#X obj 203 313 samphold~;
#X obj 82 361 *~;
#X obj 54 388 *~;
#X obj 82 264 tabread4~ window;
#X obj 271 41 inlet;
#X obj 310 41 inlet;
#X obj 54 360 bp~;
#X obj 388 41 inlet;
#X obj 426 41 inlet;
#X obj 189 90 delay;
#X obj 112 63 r moving;
#X obj 112 88 random 1200;
#X obj 211 125 modelling;
#X obj 293 126 grainphase;
#X obj 366 126 modelling;
#X obj 445 126 modelling;
#X text 253 22 durata;
#X text 307 19 densita;
#X text 376 20 frequenza;
#X text 437 23 Q;
#X floatatom 393 289 5 0 0 0 - - -;
#X obj 462 265 print;
#X text 322 394 comment;
#X floatatom 330 383 5 0 0 0 - - -;
#X obj 330 345 env~;
#X obj 370 312 s~ test;
#X floatatom 558 258 5 0 0 0 - - -;
#X obj 437 177 pack f f f;
#X msg 438 212 \$3 \$1 \$2;
#X connect 1 0 20 0;
#X connect 2 0 5 0;
#X connect 3 0 14 1;
#X connect 3 0 17 0;
#X connect 4 0 2 0;
#X connect 5 0 6 0;
#X connect 6 0 3 0;
#X connect 7 0 8 0;
#X connect 8 0 11 0;
#X connect 8 1 12 0;
#X connect 9 0 10 0;
#X connect 10 0 7 0;
#X connect 11 0 13 0;
#X connect 12 0 13 0;
#X connect 13 0 14 0;
#X connect 14 0 15 1;
#X connect 15 0 16 1;
#X connect 16 0 0 0;
#X connect 17 0 15 0;
#X connect 17 0 39 0;
#X connect 18 0 26 1;
#X connect 19 0 28 1;
#X connect 20 0 16 0;
#X connect 21 0 29 1;
#X connect 22 0 20 2;
#X connect 22 0 41 1;
#X connect 23 0 26 0;
#X connect 23 0 27 0;
#X connect 23 0 28 0;
#X connect 23 0 29 0;
#X connect 24 0 25 0;
#X connect 25 0 23 0;
#X connect 26 0 4 0;
#X connect 26 0 10 1;
#X connect 26 0 34 0;
#X connect 26 0 40 0;
#X connect 27 0 5 1;
#X connect 27 0 41 2;
#X connect 28 0 8 1;
#X connect 29 0 20 1;
#X connect 29 0 41 0;
#X connect 38 0 37 0;
#X connect 41 0 42 0;
#X connect 42 0 35 0;
