#N canvas 377 333 327 165 10;
#X obj 29 55 randomF 1;
#X obj 29 20 inlet;
#X obj 29 120 outlet;
#X obj 194 63 inlet;
#X text 206 47 med;
#X obj 29 88 expr $f3*ln(pow($f1 \, $f2)+1)/ln(2);
#X obj 133 52 r var;
#X floatatom 114 122 5 0 0 0 - - -;
#X floatatom 186 121 5 0 0 0 - - -;
#X obj 104 20 r durataForced;
#X connect 0 0 5 0;
#X connect 1 0 0 0;
#X connect 3 0 5 2;
#X connect 3 0 8 0;
#X connect 5 0 2 0;
#X connect 5 0 7 0;
#X connect 6 0 5 1;
#X connect 9 0 5 2;
