#N canvas 117 130 784 410 10;
#X obj 61 55 inlet;
#X obj 122 51 inlet;
#X text 33 32 center;
#X text 120 32 radium;
#X obj 196 29 inlet;
#X obj 57 244 outlet;
#X text 107 243 boolena inGranularZone;
#X obj 334 21 r coord;
#X obj 57 160 expr sqrt(pow($f1-$f3 \, 2)+pow($f2-$f4 \, 2))<$f5;
#X obj 335 49 unpack;
#X text 195 8 reverse tgl;
#X obj 354 351 s distfromcenter;
#X obj 62 84 unpack;
#X obj 354 325 switch;
#X obj 328 325 + 1;
#X obj 482 229 max;
#X obj 496 205 expr 1-$f1;
#X obj 569 205 expr 1-$f1;
#X obj 554 231 max;
#X floatatom 528 333 5 0 0 0 - - -;
#X floatatom 432 331 5 0 0 0 - - -;
#X obj 483 258 expr sqrt(pow($f1 \, 2)+pow($f2 \, 2))-$f3;
#X obj 370 160 expr sqrt(pow($f1-$f3 \, 2)+pow($f2-$f4 \, 2))/$f5;
#X obj 440 296 expr abs(1-(sqrt(pow($f1-$f3 \, 2)+pow($f2-$f4 \, 2))-$f5)/$f6)
;
#X floatatom 232 333 5 0 0 0 - - -;
#X obj 37 193 expr ($f1&&abs(1-$f2))||(abs(1-$f1)&&$f2);
#X text 9 193 xor;
#X msg 235 289 0;
#X obj 236 262 loadbang;
#X obj 465 67 s radium;
#X obj 469 39 bng 15 250 50 0 empty empty empty 17 7 0 10 -262144 -1
-1;
#X connect 0 0 12 0;
#X connect 1 0 8 4;
#X connect 1 0 21 2;
#X connect 1 0 22 4;
#X connect 1 0 23 4;
#X connect 1 0 29 0;
#X connect 4 0 14 0;
#X connect 4 0 25 1;
#X connect 7 0 9 0;
#X connect 8 0 25 0;
#X connect 9 0 8 0;
#X connect 9 0 22 0;
#X connect 9 0 23 0;
#X connect 9 1 8 1;
#X connect 9 1 22 1;
#X connect 9 1 23 1;
#X connect 12 0 8 2;
#X connect 12 0 15 0;
#X connect 12 0 16 0;
#X connect 12 0 22 2;
#X connect 12 0 23 2;
#X connect 12 1 8 3;
#X connect 12 1 17 0;
#X connect 12 1 18 0;
#X connect 12 1 22 3;
#X connect 12 1 23 3;
#X connect 13 0 11 0;
#X connect 14 0 13 0;
#X connect 15 0 21 0;
#X connect 16 0 15 1;
#X connect 17 0 18 1;
#X connect 18 0 21 1;
#X connect 21 0 23 5;
#X connect 22 0 13 1;
#X connect 22 0 20 0;
#X connect 23 0 19 0;
#X connect 23 0 13 2;
#X connect 25 0 5 0;
#X connect 25 0 24 0;
#X connect 27 0 14 0;
#X connect 27 0 25 1;
#X connect 28 0 27 0;
#X connect 30 0 29 0;
