#N canvas 91 409 876 261 10;
#X obj 10 107 env~;
#X floatatom 10 128 5 0 0 0 - - -;
#X obj 56 -39 inlet~;
#X msg -74 -13 0;
#X msg 22 -13 1;
#X msg -10 -13 0.7;
#X obj -7 -38 loadbang;
#X msg -43 -13 0.01;
#X obj 98 175 outlet~;
#X obj -74 15 s var;
#X obj 98 -38 inlet;
#X text 138 -38 tgl;
#X obj 98 100 expr~ if($v1==1 \, $v2 \, $v3);
#X msg 332 42 wet \$1;
#X msg 332 63 dry \$1;
#X text 422 62 - level of unprocessed signal \, between 0 and 1 (default:
0);
#X text 422 41 - level of reverbed signal \, between 0 and 1 (default:
0.3);
#X text 422 22 - amount of damping of room's surfaces (default: 0.5)
;
#X text 422 4 - size of the room to be simulated (default=0.85);
#X obj 264 63 freeverb~;
#X floatatom 442 -22 5 0 0 0 - - -;
#X floatatom 643 -22 5 0 0 0 - - -;
#X msg 332 22 damping \$1;
#X msg 332 2 roomsize \$1;
#X obj 480 -22 expr pow(abs($f1-1) \, 0.1);
#X obj 332 -23 r distfromcenter;
#X text 460 59 comment;
#N canvas 56 504 189 223 soundcontrol 0;
#X obj 51 27 inlet~;
#X obj 51 150 outlet~;
#X obj 51 126 compressor~;
#X obj 86 103 r compr;
#X obj 72 51 r hip;
#X obj 51 79 hip~;
#X obj 88 79 r lop;
#X obj 51 103 lop~;
#X connect 0 0 5 0;
#X connect 2 0 1 0;
#X connect 3 0 2 1;
#X connect 4 0 5 1;
#X connect 5 0 7 0;
#X connect 6 0 7 1;
#X connect 7 0 2 0;
#X restore 98 150 pd soundcontrol;
#X obj 56 51 16grains;
#X obj 413 119 r roomsize;
#X obj 487 118 r damping;
#X obj 562 118 r wet;
#X obj 607 118 r dry;
#X obj 293 134 env~;
#X floatatom 293 155 5 0 0 0 - - -;
#X obj 55 80 *~ 10;
#X obj 264 99 *~ 0.8;
#X connect 0 0 1 0;
#X connect 2 0 19 0;
#X connect 2 0 19 1;
#X connect 2 0 28 0;
#X connect 3 0 9 0;
#X connect 4 0 9 0;
#X connect 5 0 9 0;
#X connect 6 0 3 0;
#X connect 7 0 9 0;
#X connect 10 0 12 0;
#X connect 12 0 27 0;
#X connect 13 0 19 0;
#X connect 14 0 19 0;
#X connect 19 0 36 0;
#X connect 19 1 36 0;
#X connect 22 0 19 0;
#X connect 23 0 19 0;
#X connect 24 0 23 0;
#X connect 24 0 21 0;
#X connect 24 0 13 0;
#X connect 25 0 22 0;
#X connect 25 0 20 0;
#X connect 25 0 14 0;
#X connect 25 0 24 0;
#X connect 27 0 8 0;
#X connect 28 0 35 0;
#X connect 29 0 23 0;
#X connect 30 0 22 0;
#X connect 31 0 13 0;
#X connect 32 0 14 0;
#X connect 33 0 34 0;
#X connect 35 0 0 0;
#X connect 35 0 12 1;
#X connect 36 0 12 2;
#X connect 36 0 33 0;
